# xmcd
#
# Track frame offsets:
#      150
#      17867
#      32744
#      46934
#      67816
#      83753
#      101881
#      118835
#      132646
#      149222
#      175080
#      197563
# 
# Disc length: 2820 seconds
#
# Revision: 2
# Processed by: cddbd v1.4PL0 Copyright (c) Steve Scherf et al.
#
# Submitted via: FreeRIP 1.21
#
DISCID=ae0b020c
DTITLE=White Zombie - Living Dead Girl
DYEAR=1900
DGENRE=blues
TTITLE0=hit mania dance champions 2001
TTITLE1=
TTITLE2=
TTITLE3=
TTITLE4=
TTITLE5=
TTITLE6=
TTITLE7=
TTITLE8=
TTITLE9=
TTITLE10=
TTITLE11=
EXTD=
EXTT0=
EXTT1=
EXTT2=
EXTT3=
EXTT4=
EXTT5=
EXTT6=
EXTT7=
EXTT8=
EXTT9=
EXTT10=
EXTT11=
PLAYORDER=
